<svg width="142" height="75" viewBox="0 0 142 75" fill="none" xmlns="http://www.w3.org/2000/svg">
<path d="M70.5142 0C52.6077 9.27093 34.0768 0.481086 16.4774 9.91238V35.7507C18.9441 34.9803 21.4842 34.4686 24.0567 34.2239L24.3906 34.1972V15.0707C30.2971 13.0328 36.5609 12.9359 43.5993 12.8256C51.8831 12.702 61.1486 12.5617 70.4975 8.72971C79.8464 12.5617 89.1119 12.702 97.3924 12.8256C104.434 12.9359 110.698 13.0328 116.604 15.0707V29.3262C119.329 30.3285 121.987 31.3307 122.852 31.6281C123.437 31.6321 124.011 31.785 124.521 32.0724V9.91238C106.952 0.481086 88.4207 9.27093 70.5142 0Z" fill="white"/>
<path d="M140.802 36.9333C140.117 36.7696 139.8 37.1739 139.396 37.1739C138.992 37.1739 135.025 36.4155 134.862 36.5658L134.698 36.7195C134.891 36.8817 135.12 36.9962 135.366 37.0536C135.7 37.077 138.341 37.5982 138.264 37.6984C137.927 37.8696 137.575 38.0094 137.212 38.116C137.212 38.116 125.94 35.1493 125.159 35.303C124.377 35.4567 123.703 35.7072 123.019 35.6371C122.334 35.5669 121.766 35.1961 120.828 34.9689C119.89 34.7417 117.155 34.2239 117.155 34.2239C117.155 34.2239 122.207 34.3241 122.678 34.4745C123.149 34.6248 123.463 34.0435 123.372 33.8931C123.282 33.7428 122.705 33.7294 122.461 33.7294C122.217 33.7294 100.498 25.5343 99.3991 25.3472C98.3006 25.1601 81.1988 24.0309 76.551 24.7224C71.9033 25.414 71.8231 25.8383 72.2438 25.9218C72.6645 26.0053 74.6912 25.9719 74.5811 26.1757C74.4709 26.3795 65.3023 35.6872 64.5043 35.9077C63.7063 36.1282 63.1854 36.2117 63.1854 36.2117L63.9967 36.5826C62.9348 36.6446 61.8737 36.4474 60.9049 36.0079C59.5226 35.2997 56.955 35.2829 55.6027 35.2997C54.2505 35.3164 43.2488 36.332 43.2488 36.4656C43.2488 36.5993 43.8732 36.7429 44.1436 36.7797C44.4141 36.8164 51.0852 38.2897 52.5376 38.8744C52.5376 38.8744 37.6428 35.0959 24.2671 36.3119C10.8915 37.528 0 47.3301 0 47.3301C0 47.3301 8.66445 47.8613 11.4491 46.662C14.2337 45.4626 15.5793 42.7598 17.4792 41.9847C17.4792 41.9847 14.4374 43.1941 13.0885 44.4603C11.7396 45.7265 10.9082 45.7967 10.7746 45.5261C10.6411 45.2555 14.7179 40.4646 19.7329 39.2987C24.7479 38.1327 29.182 39.0214 29.2321 39.3989C29.2379 39.4861 29.2242 39.5735 29.192 39.6548C29.1598 39.736 29.1099 39.809 29.0459 39.8686C28.982 39.9281 28.9056 39.9726 28.8222 39.9988C28.7389 40.0251 28.6508 40.0324 28.5643 40.0203C28.1737 39.9969 26.7045 39.7163 25.4358 40.1974C25.4358 40.1974 30.0201 40.4513 33.2388 42.7832C36.4575 45.1151 37.2655 47.2199 37.2655 47.2199C37.2655 47.2199 36.4308 44.33 35.1119 43.2108C33.793 42.0917 32.6044 41.2364 32.8581 40.9825C33.1119 40.7286 34.3907 41.4135 34.6812 41.7943C34.9717 42.1752 36.0501 44.0494 36.6845 43.8222C37.3189 43.595 36.0501 42.3623 36.1536 42.1518C36.2571 41.9413 37.192 42.1251 37.9366 42.5193C38.6812 42.9135 40.1536 43.4581 44.985 43.2209C49.8164 42.9837 56.0034 42.4424 56.8048 42.7465C57.6061 43.0505 59.4391 43.3913 61.6361 43.3913C63.8331 43.3913 74.6378 43.4581 82.0335 43.4915C86.9818 43.5149 92.3507 43.5215 95.3624 43.5249C96.2272 40.6384 97.8298 36.028 97.9734 35.7774C98.0702 35.607 97.9133 34.8954 97.723 34.2506C97.3891 34.3642 97.0552 34.4811 96.7547 34.5847C96.6188 34.4047 96.5128 34.2039 96.4409 33.99C96.2272 33.3219 96.0135 28.7582 95.9534 27.3083C96.2873 27.3985 96.6412 27.492 96.9551 27.5956L97.5928 27.7994C97.0252 27.7259 96.4208 27.6825 96.4075 27.8295C96.3808 28.1101 96.8115 30.7694 96.8115 30.7694C96.8115 30.7694 101.766 30.6091 104.491 30.7694C105.29 31.2003 106.055 31.6929 106.778 32.2428C106.778 32.2428 101.386 33.0479 97.9033 34.1571C98.0769 34.735 98.2873 35.5836 98.137 35.8476C97.9868 36.1115 95.132 44.9681 95.132 44.9681L95.9033 43.4948H97.7697L96.1838 45.5895L96.2205 46.6787C97.3748 44.5305 99.0876 42.7342 101.178 41.4795C103.268 40.2248 105.658 39.5583 108.096 39.5504C110.533 39.5426 112.928 40.1936 115.026 41.4348C117.124 42.6759 118.849 44.4612 120.017 46.6018C119.439 45.339 117.539 41.497 115.486 40.7219C113.019 39.7931 112.107 39.6762 112.057 39.0849C112.007 38.4935 112.391 38.1394 113.035 38.2563C113.68 38.3733 117.513 40.8923 118.524 41.1462C119.536 41.4001 131.569 42.6429 132.04 42.4124C132.511 42.1819 133.142 41.9313 132.508 41.5638C131.873 41.1963 125.63 41.2297 125.326 40.8288C125.022 40.4279 129.479 40.2041 131.282 40.3143C133.085 40.4246 134.387 40.9624 135.336 41.1395C135.981 41.2536 136.632 41.3339 137.286 41.38C136.862 41.2261 136.427 41.1076 135.983 41.0259C135.449 40.9491 135.095 40.8856 135.386 40.7954C135.676 40.7052 138.985 40.9223 139.326 41.2898C139.666 41.6573 139.72 42.5694 139.756 42.673C139.803 42.7537 139.869 42.8224 139.947 42.8734C139.947 42.8734 140.414 40.7854 140.404 40.1105C140.394 39.4357 141.486 37.1004 140.802 36.9333ZM72.4709 36.3053L72.8448 34.2773C72.8448 34.2773 73.1153 34.8687 73.3824 34.9622C73.6495 35.0558 75.0519 33.686 75.2322 33.2918C75.4125 32.8976 74.8181 31.2238 74.6078 30.9766C74.3974 30.7293 72.9016 31.9788 72.9016 31.9788C72.9644 32.0516 73.053 32.0971 73.1487 32.1058C73.3256 32.1292 74.2271 31.471 74.3974 31.4109C74.5677 31.3507 74.4909 32.0122 74.4575 32.2728C74.4241 32.5334 74.0502 32.8642 73.7731 33.1181C73.4959 33.372 73.6295 33.4522 73.6295 33.4522C73.8764 33.4842 74.1216 33.5288 74.364 33.5858C74.4976 33.6359 73.6695 34.3475 73.5093 34.4043C73.349 34.4611 73.1554 33.6025 73.0886 33.2216C72.8107 33.191 72.53 33.1977 72.2539 33.2417C72.1103 33.3152 72.2171 33.4856 72.2872 33.5758C72.3574 33.666 71.7731 35.5101 71.536 36.2752C68.4408 36.2752 66.334 36.2752 66.334 36.2752C66.334 36.2752 75.6829 26.8138 76.3507 26.61C78.2919 26.3751 80.2451 26.2524 82.2004 26.2425C80.0635 26.4263 77.0085 26.737 76.6812 27.021C76.1737 27.4586 73.3891 30.6191 73.6762 30.7193C73.9634 30.8195 90.541 29.8407 94.7113 30.7661C94.7113 32.4666 94.6846 34.1337 94.4809 34.5914C94.3307 34.9098 94.135 35.2047 93.9 35.4667C89.5126 36.1148 79.1687 36.2652 72.4709 36.3053ZM108.998 30.5523C108.922 30.7795 107.035 30.8864 106.024 30.6525C105.012 30.4186 103.716 28.7382 103.352 28.4475C102.988 28.1569 102.134 28.1702 101.516 27.9163C100.898 27.6624 96.5744 26.9408 96.3841 26.8873C96.1938 26.8339 96.0168 25.6846 96.0168 25.6846C96.0168 25.6846 97.6863 25.571 98.3106 25.7113C98.935 25.8517 100.11 26.4196 100.705 26.5733C101.299 26.727 103.022 26.9074 104.124 27.9297C105.226 28.952 107.429 29.3095 108.594 29.6001C109.76 29.8908 109.075 30.2917 108.998 30.5356V30.5523Z" fill="white"/>
<path d="M26.7513 18.161V27.5455L51.2589 33.5123C53.0752 33.352 54.9617 33.1983 55.5627 33.1783H56.1136C58.117 33.1783 59.6462 33.3453 60.8382 33.7028L26.7513 18.161ZM112.494 16.3503L99.5327 23.2325L99.7898 23.2692C100.324 23.3628 101.967 23.9374 109.172 26.57L114.277 24.9931V16.7913C113.69 16.6276 113.092 16.4772 112.494 16.3503ZM52.7981 14.8703C50.0302 15.054 47.3323 15.1141 44.738 15.1576L64.7915 32.8642C65.1253 32.5301 65.526 32.176 65.9434 31.7784L52.7981 14.8703ZM87.1487 14.7901L81.9334 22.3939C83.476 22.3939 85.2022 22.4407 86.9417 22.5008L94.3675 15.1208C92.0369 15.0674 89.6195 14.9839 87.1487 14.7901ZM66.4108 12.6319C64.8048 13.0929 63.2122 13.4704 61.6328 13.7745L67.8165 29.9577C68.294 29.4866 68.7748 29.0155 69.2389 28.5511L66.4108 12.6319ZM74.0903 12.4749L72.8349 23.2291C73.7264 23.012 74.7848 22.8516 75.9701 22.6712L78.8082 13.6508C77.2456 13.3368 75.6729 12.9526 74.087 12.4749H74.0903Z" fill="white"/>
<path d="M0.385315 64.1176L6.39784 52.0515H11.7332L17.7252 64.1176H13.3133L12.3078 61.9219H5.82326L4.69463 64.1176H0.385315ZM6.95189 59.09H11.1586L9.16811 54.7192H8.9629L6.95189 59.09Z" fill="white"/>
<path d="M22.1438 64.1176C21.2409 64.1176 20.5637 63.9876 20.1123 63.7277C19.6745 63.4541 19.3804 63.0847 19.2299 62.6196C19.0931 62.1544 19.0247 61.6414 19.0247 61.0805V54.9244H22.8005V60.7112C22.8005 61.2584 23.1288 61.532 23.7855 61.532H26.1248C26.4258 61.532 26.6036 61.5046 26.6583 61.4499C26.7131 61.3952 26.7404 61.2173 26.7404 60.9164V54.9244H30.5367V64.1176H27.5613L26.7815 63.7072C26.2343 63.8166 25.605 63.9124 24.8936 63.9944C24.1822 64.0765 23.464 64.1176 22.7389 64.1176H22.1438Z" fill="white"/>
<path d="M36.5653 64.1176C35.5256 64.1176 34.8142 63.8987 34.4311 63.4609C34.0481 63.0231 33.8566 62.3665 33.8566 61.4909V57.5099H32.1739V54.9244H33.0357C33.2683 54.9244 33.453 54.8833 33.5898 54.8012C33.7403 54.7055 33.836 54.5413 33.8771 54.3087L34.267 52.113H37.6323V54.9244H41.0593V57.5099H37.6323V60.6906C37.6323 61.0326 37.7144 61.2584 37.8786 61.3678C38.0428 61.4773 38.289 61.532 38.6173 61.532H40.6694L41.0798 63.9124C40.7925 63.9534 40.3547 64.0013 39.7665 64.056C39.1782 64.097 38.5353 64.1176 37.8376 64.1176H36.5653Z" fill="white"/>
<path d="M45.6483 64.1176C44.7454 64.1176 44.0683 63.9876 43.6168 63.7277C43.1654 63.4677 42.8644 63.1121 42.7139 62.6606C42.5771 62.1955 42.5087 61.6619 42.5087 61.06V57.9614C42.5087 57.3868 42.5839 56.8738 42.7344 56.4224C42.8849 55.9572 43.179 55.5947 43.6168 55.3348C44.0683 55.0612 44.7454 54.9244 45.6483 54.9244H51.3531C52.256 54.9244 52.9263 55.0612 53.3641 55.3348C53.8155 55.5947 54.1097 55.9572 54.2465 56.4224C54.3969 56.8738 54.4722 57.3868 54.4722 57.9614V61.06C54.4722 61.6619 54.3969 62.1955 54.2465 62.6606C54.1097 63.1121 53.8155 63.4677 53.3641 63.7277C52.9263 63.9876 52.256 64.1176 51.3531 64.1176H45.6483ZM47.29 61.532H49.7319C50.3886 61.532 50.7101 61.2584 50.6964 60.7112V58.3308C50.6964 58.0572 50.6212 57.852 50.4707 57.7152C50.3339 57.5784 50.0876 57.5099 49.7319 57.5099H47.3105C46.9548 57.5099 46.7017 57.5784 46.5513 57.7152C46.4008 57.852 46.3255 58.0572 46.3255 58.3308V60.7112C46.3118 61.2584 46.6333 61.532 47.29 61.532Z" fill="white"/>
<path d="M59.688 64.1175C58.7577 64.1175 58.0737 64.0765 57.6359 63.9944C57.1981 63.9123 56.9793 63.8166 56.9793 63.7071L58.2105 61.06C58.5251 61.1147 59.175 61.1694 60.1599 61.2241C61.1449 61.2652 62.424 61.2857 63.9973 61.2857H65.6184C66.0972 61.2857 66.4187 61.2173 66.5829 61.0805C66.747 60.9437 66.8291 60.7453 66.8291 60.4854V60.2802C66.8291 59.9519 66.747 59.7261 66.5829 59.603C66.4187 59.4799 66.0972 59.4183 65.6184 59.4183H60.9192C59.5375 59.4183 58.532 59.1652 57.9027 58.6591C57.2734 58.1392 56.9587 57.2979 56.9587 56.135V55.3963C56.9587 54.7944 57.0682 54.2403 57.2871 53.7341C57.5196 53.228 57.9095 52.8244 58.4567 52.5234C59.004 52.2088 59.7564 52.0515 60.714 52.0515H67.5268C68.3613 52.0515 69.0522 52.0993 69.5994 52.1951C70.1603 52.2909 70.4407 52.3935 70.4407 52.5029L69.8251 55.0475C69.4421 55.0064 68.717 54.9654 67.6499 54.9243C66.5966 54.8696 65.2559 54.8423 63.6279 54.8423L62.1504 54.8217C61.7263 54.8217 61.4254 54.8833 61.2475 55.0064C61.0697 55.1159 60.9739 55.3279 60.9602 55.6426V55.7862C60.9602 56.1008 61.056 56.3197 61.2475 56.4429C61.4391 56.566 61.7469 56.6275 62.171 56.6275H66.6855C67.561 56.6275 68.3066 56.7165 68.9222 56.8943C69.5378 57.0722 70.0098 57.4005 70.3381 57.8793C70.6665 58.3444 70.8306 59.0353 70.8306 59.9519V60.6906C70.8306 61.7166 70.5639 62.5443 70.0303 63.1736C69.5105 63.8029 68.6007 64.1175 67.3011 64.1175H59.688Z" fill="white"/>
<path d="M76.4307 64.1175C75.5277 64.1175 74.8301 63.9876 74.3376 63.7276C73.8587 63.4677 73.5304 63.112 73.3526 62.6606C73.1747 62.1954 73.0858 61.6619 73.0858 61.06V57.9614C73.0858 57.4142 73.1747 56.9148 73.3526 56.4634C73.5441 55.9982 73.8793 55.6289 74.3581 55.3553C74.8369 55.068 75.5277 54.9243 76.4307 54.9243H80.6784C81.7455 54.9243 82.5595 55.0543 83.1204 55.3142C83.6949 55.5605 84.0848 55.9162 84.29 56.3813C84.5089 56.8327 84.6184 57.3594 84.6184 57.9614V60.588H81.0273C79.796 60.588 78.8589 60.5606 78.2159 60.5059C77.5866 60.4512 77.142 60.417 76.8821 60.4033V60.7111C76.8684 61.2583 77.1968 61.532 77.8671 61.532H78.5032C79.5977 61.532 80.61 61.5114 81.5403 61.4704C82.4705 61.4157 83.1614 61.3678 83.6128 61.3267L84.8441 63.2762C84.8441 63.413 84.7278 63.543 84.4952 63.6661C84.2627 63.7892 83.8523 63.8987 83.264 63.9944C82.6894 64.0765 81.8686 64.1175 80.8015 64.1175H76.4307ZM76.8821 58.618H80.8221V58.3307C80.8221 58.0571 80.7947 57.8656 80.74 57.7562C80.6989 57.6467 80.5553 57.5783 80.309 57.551C80.0628 57.5236 79.6455 57.5099 79.0573 57.5099H77.8671C77.2104 57.5099 76.8821 57.7835 76.8821 58.3307V58.618Z" fill="white"/>
<path d="M87.1031 64.1175V52.7492L86.8979 51.1075H90.8378V64.1175H87.1031Z" fill="white"/>
<path d="M96.4302 64.1175C95.5273 64.1175 94.8296 63.9876 94.3371 63.7276C93.8583 63.4677 93.5299 63.112 93.3521 62.6606C93.1742 62.1954 93.0853 61.6619 93.0853 61.06V57.9614C93.0853 57.4142 93.1742 56.9148 93.3521 56.4634C93.5436 55.9982 93.8788 55.6289 94.3576 55.3553C94.8364 55.068 95.5273 54.9243 96.4302 54.9243H100.678C101.745 54.9243 102.559 55.0543 103.12 55.3142C103.694 55.5605 104.084 55.9162 104.29 56.3813C104.508 56.8327 104.618 57.3594 104.618 57.9614V60.588H101.027C99.7955 60.588 98.8584 60.5606 98.2155 60.5059C97.5862 60.4512 97.1415 60.417 96.8816 60.4033V60.7111C96.8679 61.2583 97.1963 61.532 97.8666 61.532H98.5027C99.5972 61.532 100.61 61.5114 101.54 61.4704C102.47 61.4157 103.161 61.3678 103.612 61.3267L104.844 63.2762C104.844 63.413 104.727 63.543 104.495 63.6661C104.262 63.7892 103.852 63.8987 103.264 63.9944C102.689 64.0765 101.868 64.1175 100.801 64.1175H96.4302ZM96.8816 58.618H100.822V58.3307C100.822 58.0571 100.794 57.8656 100.739 57.7562C100.698 57.6467 100.555 57.5783 100.309 57.551C100.062 57.5236 99.6451 57.5099 99.0568 57.5099H97.8666C97.21 57.5099 96.8816 57.7835 96.8816 58.3307V58.618Z" fill="white"/>
<path d="M110.037 64.1175C109.134 64.1175 108.436 63.9876 107.944 63.7276C107.465 63.4677 107.137 63.112 106.959 62.6606C106.781 62.1954 106.692 61.6619 106.692 61.06V57.9614C106.692 57.4142 106.781 56.9148 106.959 56.4634C107.151 55.9982 107.486 55.6289 107.964 55.3553C108.443 55.068 109.134 54.9243 110.037 54.9243H112.664C114.237 54.9243 115.393 54.9927 116.132 55.1295C116.87 55.2663 117.288 55.4031 117.383 55.54L116.768 57.7151C116.481 57.6878 115.961 57.6467 115.208 57.592C114.456 57.5373 113.628 57.5099 112.725 57.5099H111.473C111.118 57.5099 110.865 57.5783 110.714 57.7151C110.564 57.8519 110.489 58.0571 110.489 58.3307V60.7111C110.489 60.9847 110.557 61.1899 110.694 61.3267C110.831 61.4635 111.09 61.532 111.473 61.532H112.52C113.532 61.532 114.401 61.5114 115.126 61.4704C115.865 61.4157 116.405 61.3678 116.747 61.3267L117.979 63.2762C117.979 63.4677 117.636 63.6592 116.952 63.8508C116.282 64.0286 115.277 64.1175 113.936 64.1175H110.037Z" fill="white"/>
<path d="M122.993 64.1175C121.953 64.1175 121.242 63.8987 120.859 63.4609C120.476 63.0231 120.284 62.3665 120.284 61.4909V57.5099H118.601V54.9243H119.463C119.696 54.9243 119.88 54.8833 120.017 54.8012C120.168 54.7054 120.263 54.5413 120.305 54.3087L120.694 52.113H124.06V54.9243H127.487V57.5099H124.06V60.6906C124.06 61.0326 124.142 61.2583 124.306 61.3678C124.47 61.4772 124.716 61.532 125.045 61.532H127.097L127.507 63.9123C127.22 63.9534 126.782 64.0013 126.194 64.056C125.606 64.097 124.963 64.1175 124.265 64.1175H122.993Z" fill="white"/>
<path d="M132.076 64.1175C131.173 64.1175 130.496 63.9876 130.044 63.7276C129.593 63.4677 129.292 63.112 129.141 62.6606C129.005 62.1954 128.936 61.6619 128.936 61.06V57.9614C128.936 57.3868 129.011 56.8738 129.162 56.4223C129.312 55.9572 129.606 55.5947 130.044 55.3347C130.496 55.0611 131.173 54.9243 132.076 54.9243H137.781C138.683 54.9243 139.354 55.0611 139.792 55.3347C140.243 55.5947 140.537 55.9572 140.674 56.4223C140.824 56.8738 140.9 57.3868 140.9 57.9614V61.06C140.9 61.6619 140.824 62.1954 140.674 62.6606C140.537 63.112 140.243 63.4677 139.792 63.7276C139.354 63.9876 138.683 64.1175 137.781 64.1175H132.076ZM133.717 61.532H136.159C136.816 61.532 137.138 61.2583 137.124 60.7111V58.3307C137.124 58.0571 137.049 57.8519 136.898 57.7151C136.761 57.5783 136.515 57.5099 136.159 57.5099H133.738C133.382 57.5099 133.129 57.5783 132.979 57.7151C132.828 57.8519 132.753 58.0571 132.753 58.3307V60.7111C132.739 61.2583 133.061 61.532 133.717 61.532Z" fill="white"/>
<path d="M20.7618 73.3393C20.3392 73.3393 20.0088 73.2798 19.7707 73.1607C19.5326 73.0417 19.366 72.8631 19.2707 72.625C19.1755 72.3869 19.1279 72.0923 19.1279 71.7411V69.75C19.1279 69.1786 19.2558 68.759 19.5118 68.4911C19.7677 68.2173 20.1844 68.0804 20.7618 68.0804H23.4493C23.86 68.0804 24.1725 68.1042 24.3868 68.1518C24.607 68.1935 24.7171 68.2381 24.7171 68.2858L24.5386 69.0268C24.4374 69.009 24.1368 68.9911 23.6368 68.9733C23.1427 68.9494 22.4225 68.9375 21.4761 68.9375H21.0207C20.5445 68.9375 20.3064 69.1488 20.3064 69.5715V71.8482C20.3064 72.0506 20.357 72.2084 20.4582 72.3215C20.5654 72.4286 20.7529 72.4822 21.0207 72.4822H21.3868C22.3749 72.4822 23.1398 72.4732 23.6814 72.4554C24.229 72.4316 24.5683 72.4078 24.6993 72.384L25.0653 72.9732C25.0653 73.003 25.0147 73.0476 24.9136 73.1072C24.8183 73.1667 24.6397 73.2203 24.3778 73.2679C24.1159 73.3155 23.738 73.3393 23.2439 73.3393H20.7618Z" fill="white"/>
<path d="M26.9304 73.3393C26.478 73.3393 26.1506 73.2351 25.9482 73.0268C25.7458 72.8125 25.6446 72.5209 25.6446 72.1518C25.6446 71.7649 25.7488 71.4673 25.9571 71.259C26.1714 71.0506 26.4958 70.9465 26.9304 70.9465H27.3857C27.8321 70.9465 28.2339 70.9584 28.5911 70.9822C28.9482 71.006 29.2428 71.0298 29.475 71.0536V70.4643C29.475 70.4107 29.469 70.3572 29.4571 70.3036C29.4452 70.2441 29.4095 70.1965 29.35 70.1607C29.2905 70.125 29.1893 70.1072 29.0464 70.1072H28.6C27.9512 70.1072 27.4095 70.1191 26.975 70.1429C26.5405 70.1607 26.2458 70.1786 26.0911 70.1965L25.9929 69.5179C25.9929 69.4346 26.219 69.384 26.6714 69.3661C27.1238 69.3483 27.8798 69.3393 28.9393 69.3393H29.3857C29.6833 69.3393 29.9125 69.381 30.0732 69.4643C30.2339 69.5477 30.347 69.6518 30.4125 69.7768C30.4839 69.9018 30.5256 70.0298 30.5375 70.1607C30.5553 70.2857 30.5643 70.3929 30.5643 70.4822V73.3393H29.8321L29.4839 73.1607C29.2339 73.2024 28.9333 73.2441 28.5821 73.2857C28.2309 73.3214 27.8292 73.3393 27.3768 73.3393H26.9304ZM27.1625 72.5714H29.2071C29.3381 72.5714 29.4155 72.5595 29.4393 72.5357C29.4631 72.5119 29.475 72.4375 29.475 72.3125V71.625H27.1625C27.0018 71.625 26.8887 71.6637 26.8232 71.7411C26.7637 71.8185 26.7339 71.9405 26.7339 72.1072C26.7339 72.2738 26.7696 72.3929 26.8411 72.4643C26.9125 72.5357 27.0196 72.5714 27.1625 72.5714Z" fill="white"/>
<path d="M31.6836 73.3393V68.3929L31.5943 67.6786H32.7729V73.3393H31.6836Z" fill="white"/>
<path d="M34.4778 68.7768C34.2576 68.7768 34.0969 68.7322 33.9957 68.6429C33.8945 68.5536 33.8439 68.4048 33.8439 68.1965C33.8439 67.9822 33.8915 67.8334 33.9867 67.75C34.0879 67.6608 34.2516 67.6161 34.4778 67.6161C34.704 67.6161 34.8677 67.6608 34.9689 67.75C35.0701 67.8334 35.1207 67.9822 35.1207 68.1965C35.1207 68.3989 35.0701 68.5477 34.9689 68.6429C34.8677 68.7322 34.704 68.7768 34.4778 68.7768ZM33.9332 73.3393V69.3393H35.0225V73.3393H33.9332Z" fill="white"/>
<path d="M37.2786 73.3393C36.981 73.3393 36.7519 73.3006 36.5912 73.2232C36.4304 73.1459 36.3144 73.0476 36.2429 72.9286C36.1775 72.8095 36.1358 72.6845 36.1179 72.5536C36.106 72.4226 36.1001 72.3036 36.1001 72.1965V70.4822C36.1001 70.3929 36.106 70.2857 36.1179 70.1607C36.1358 70.0298 36.1775 69.9018 36.2429 69.7768C36.3144 69.6518 36.4304 69.5477 36.5912 69.4643C36.7578 69.381 36.987 69.3393 37.2786 69.3393H37.734C38.2816 69.3393 38.7221 69.3512 39.0554 69.375C39.3947 69.3929 39.6536 69.4137 39.8322 69.4375V67.6786H40.9215V73.3393H40.1893L39.8411 73.1607C39.5911 73.2024 39.2905 73.2441 38.9394 73.2857C38.5882 73.3214 38.1834 73.3393 37.7251 73.3393H37.2786ZM37.6179 72.5714H39.5554C39.6804 72.5714 39.7578 72.5566 39.7876 72.5268C39.8173 72.497 39.8322 72.4226 39.8322 72.3036V70.1697C39.6298 70.1578 39.3739 70.1459 39.0644 70.134C38.7548 70.1161 38.4245 70.1072 38.0733 70.1072H37.6179C37.3322 70.1072 37.1894 70.2262 37.1894 70.4643V72.2143C37.1894 72.4524 37.3322 72.5714 37.6179 72.5714Z" fill="white"/>
<path d="M43.2354 73.3393C42.783 73.3393 42.4556 73.2351 42.2532 73.0268C42.0508 72.8125 41.9497 72.5209 41.9497 72.1518C41.9497 71.7649 42.0538 71.4673 42.2622 71.259C42.4764 71.0506 42.8008 70.9465 43.2354 70.9465H43.6907C44.1371 70.9465 44.5389 70.9584 44.8961 70.9822C45.2532 71.006 45.5479 71.0298 45.78 71.0536V70.4643C45.78 70.4107 45.774 70.3572 45.7621 70.3036C45.7502 70.2441 45.7145 70.1965 45.655 70.1607C45.5955 70.125 45.4943 70.1072 45.3514 70.1072H44.905C44.2562 70.1072 43.7145 70.1191 43.28 70.1429C42.8455 70.1607 42.5508 70.1786 42.3961 70.1965L42.2979 69.5179C42.2979 69.4346 42.5241 69.384 42.9764 69.3661C43.4288 69.3483 44.1848 69.3393 45.2443 69.3393H45.6907C45.9883 69.3393 46.2175 69.381 46.3782 69.4643C46.5389 69.5477 46.652 69.6518 46.7175 69.7768C46.7889 69.9018 46.8306 70.0298 46.8425 70.1607C46.8603 70.2857 46.8693 70.3929 46.8693 70.4822V73.3393H46.1371L45.7889 73.1607C45.5389 73.2024 45.2383 73.2441 44.8871 73.2857C44.536 73.3214 44.1342 73.3393 43.6818 73.3393H43.2354ZM43.4675 72.5714H45.5121C45.6431 72.5714 45.7205 72.5595 45.7443 72.5357C45.7681 72.5119 45.78 72.4375 45.78 72.3125V71.625H43.4675C43.3068 71.625 43.1937 71.6637 43.1282 71.7411C43.0687 71.8185 43.0389 71.9405 43.0389 72.1072C43.0389 72.2738 43.0747 72.3929 43.1461 72.4643C43.2175 72.5357 43.3247 72.5714 43.4675 72.5714Z" fill="white"/>
<path d="M48.9886 73.3393C48.691 73.3393 48.4618 73.3006 48.3011 73.2232C48.1404 73.1459 48.0243 73.0476 47.9529 72.9286C47.8874 72.8095 47.8458 72.6845 47.8279 72.5536C47.816 72.4226 47.81 72.3036 47.81 72.1965V70.4822C47.81 70.3929 47.816 70.2857 47.8279 70.1607C47.8458 70.0298 47.8874 69.9018 47.9529 69.7768C48.0243 69.6518 48.1404 69.5477 48.3011 69.4643C48.4678 69.381 48.6969 69.3393 48.9886 69.3393H49.444C49.9916 69.3393 50.4321 69.3512 50.7654 69.375C51.1047 69.3929 51.3636 69.4137 51.5422 69.4375V67.6786H52.6315V73.3393H51.8993L51.5511 73.1607C51.3011 73.2024 51.0005 73.2441 50.6493 73.2857C50.2981 73.3214 49.8934 73.3393 49.435 73.3393H48.9886ZM49.3279 72.5714H51.2654C51.3904 72.5714 51.4678 72.5566 51.4975 72.5268C51.5273 72.497 51.5422 72.4226 51.5422 72.3036V70.1697C51.3398 70.1578 51.0838 70.1459 50.7743 70.134C50.4648 70.1161 50.1344 70.1072 49.7833 70.1072H49.3279C49.0422 70.1072 48.8993 70.2262 48.8993 70.4643V72.2143C48.8993 72.4524 49.0422 72.5714 49.3279 72.5714Z" fill="white"/>
<path d="M56.9072 73.3393C56.4548 73.3393 56.1274 73.2351 55.925 73.0268C55.7226 72.8125 55.6215 72.5209 55.6215 72.1518C55.6215 71.7649 55.7256 71.4673 55.934 71.259C56.1482 71.0506 56.4726 70.9465 56.9072 70.9465H57.3625C57.8089 70.9465 58.2107 70.9584 58.5679 70.9822C58.925 71.006 59.2197 71.0298 59.4518 71.0536V70.4643C59.4518 70.4107 59.4458 70.3572 59.4339 70.3036C59.422 70.2441 59.3863 70.1965 59.3268 70.1607C59.2673 70.125 59.1661 70.1072 59.0232 70.1072H58.5768C57.928 70.1072 57.3863 70.1191 56.9518 70.1429C56.5173 70.1607 56.2226 70.1786 56.0679 70.1965L55.9697 69.5179C55.9697 69.4346 56.1959 69.384 56.6482 69.3661C57.1006 69.3483 57.8566 69.3393 58.9161 69.3393H59.3625C59.6601 69.3393 59.8893 69.381 60.05 69.4643C60.2107 69.5477 60.3238 69.6518 60.3893 69.7768C60.4607 69.9018 60.5024 70.0298 60.5143 70.1607C60.5321 70.2857 60.5411 70.3929 60.5411 70.4822V73.3393H59.8089L59.4607 73.1607C59.2107 73.2024 58.9101 73.2441 58.5589 73.2857C58.2078 73.3214 57.806 73.3393 57.3536 73.3393H56.9072ZM57.1393 72.5714H59.1839C59.3149 72.5714 59.3923 72.5595 59.4161 72.5357C59.4399 72.5119 59.4518 72.4375 59.4518 72.3125V71.625H57.1393C56.9786 71.625 56.8655 71.6637 56.8 71.7411C56.7405 71.8185 56.7107 71.9405 56.7107 72.1072C56.7107 72.2738 56.7465 72.3929 56.8179 72.4643C56.8893 72.5357 56.9965 72.5714 57.1393 72.5714Z" fill="white"/>
<path d="M61.6604 73.3393V68.3929L61.5711 67.6786H62.7497V73.3393H61.6604Z" fill="white"/>
<path d="M65.7825 73.3393V69.3393H66.5147L66.7379 69.4465C66.9105 69.4167 67.1218 69.3929 67.3718 69.375C67.6218 69.3512 67.9194 69.3393 68.2647 69.3393H68.7111C68.8837 69.3393 69.0504 69.3631 69.2111 69.4108C69.3718 69.4524 69.4909 69.5149 69.5682 69.5983C69.723 69.5209 69.9373 69.4584 70.2111 69.4108C70.4849 69.3631 70.842 69.3393 71.2825 69.3393H71.7289C72.0266 69.3393 72.2557 69.381 72.4164 69.4643C72.5771 69.5477 72.6902 69.6518 72.7557 69.7768C72.8271 69.9018 72.8688 70.0298 72.8807 70.1607C72.8986 70.2857 72.9075 70.3929 72.9075 70.4822V73.3393H71.8182V70.4643C71.8182 70.2262 71.6754 70.1072 71.3896 70.1072H70.1397C70.0444 70.1072 69.9789 70.1191 69.9432 70.1429C69.9075 70.1667 69.8897 70.2203 69.8897 70.3036V73.3393H68.8004V70.4643C68.8004 70.2262 68.6575 70.1072 68.3718 70.1072H67.1397C67.0266 70.1072 66.9522 70.1191 66.9165 70.1429C66.8867 70.1607 66.8718 70.2143 66.8718 70.3036V73.3393H65.7825Z" fill="white"/>
<path d="M75.0243 73.3393C74.7267 73.3393 74.4975 73.3006 74.3368 73.2232C74.1761 73.1459 74.06 73.0476 73.9886 72.9286C73.9231 72.8095 73.8815 72.6845 73.8636 72.5536C73.8517 72.4226 73.8458 72.3036 73.8458 72.1965V70.4822C73.8458 70.3929 73.8517 70.2857 73.8636 70.1607C73.8815 70.0298 73.9231 69.9018 73.9886 69.7768C74.06 69.6518 74.1761 69.5477 74.3368 69.4643C74.5035 69.381 74.7327 69.3393 75.0243 69.3393H76.944C77.3368 69.3393 77.6434 69.378 77.8636 69.4554C78.0898 69.5268 78.2475 69.6459 78.3368 69.8125C78.432 69.9792 78.4797 70.2024 78.4797 70.4822V71.8036H76.9172C76.3815 71.8036 75.944 71.7917 75.6047 71.7679C75.2713 71.7441 75.0481 71.7292 74.935 71.7232V72.2143C74.9291 72.4524 75.0719 72.5714 75.3636 72.5714H75.819C76.1404 72.5714 76.4529 72.5685 76.7565 72.5625C77.066 72.5506 77.3487 72.5387 77.6047 72.5268C77.8606 72.5089 78.066 72.4941 78.2207 72.4822L78.5779 73.0625C78.5779 73.247 77.9916 73.3393 76.819 73.3393H75.0243ZM74.935 71.0357H77.3904V70.4643C77.3904 70.3453 77.3755 70.2619 77.3457 70.2143C77.3219 70.1667 77.2446 70.1369 77.1136 70.125C76.9826 70.1131 76.7594 70.1072 76.444 70.1072H75.3636C75.0779 70.1072 74.935 70.2262 74.935 70.4643V71.0357Z" fill="white"/>
<path d="M80.2128 68.7768C79.9926 68.7768 79.8319 68.7322 79.7307 68.6429C79.6295 68.5536 79.5789 68.4018 79.5789 68.1875C79.5789 67.9792 79.6265 67.8334 79.7218 67.75C79.823 67.6608 79.9867 67.6161 80.2128 67.6161C80.439 67.6161 80.6027 67.6608 80.7039 67.75C80.8051 67.8334 80.8557 67.9792 80.8557 68.1875C80.8557 68.3959 80.8051 68.5477 80.7039 68.6429C80.6027 68.7322 80.439 68.7768 80.2128 68.7768ZM79.2843 74.9107C79.1117 74.9107 78.945 74.8958 78.7843 74.8661C78.6176 74.8423 78.4837 74.8095 78.3825 74.7679C78.2754 74.7262 78.2218 74.6845 78.2218 74.6429L78.4004 74.1072C78.4718 74.125 78.5759 74.1429 78.7128 74.1607C78.8438 74.1845 78.9837 74.1964 79.1325 74.1964C79.2932 74.1964 79.4212 74.1578 79.5164 74.0804C79.6176 74.003 79.6682 73.8453 79.6682 73.6072V69.3393H80.7575V73.6072C80.7575 73.9345 80.695 74.1935 80.57 74.3839C80.4509 74.5744 80.2902 74.7083 80.0878 74.7857C79.8855 74.8691 79.6563 74.9107 79.4003 74.9107H79.2843Z" fill="white"/>
<path d="M83.0199 73.3393C82.6211 73.3393 82.3235 73.2589 82.127 73.0982C81.9366 72.9375 81.8413 72.6756 81.8413 72.3125V70.4822C81.8413 70.3929 81.8473 70.2857 81.8592 70.1607C81.877 70.0298 81.9187 69.9018 81.9842 69.7768C82.0556 69.6518 82.1717 69.5477 82.3324 69.4643C82.4991 69.381 82.7282 69.3393 83.0199 69.3393H85.4842C85.7818 69.3393 86.0109 69.381 86.1717 69.4643C86.3324 69.5477 86.4455 69.6518 86.5109 69.7768C86.5824 69.9018 86.624 70.0298 86.6359 70.1607C86.6538 70.2857 86.6627 70.3929 86.6627 70.4822V72.1965C86.6627 72.3036 86.6538 72.4226 86.6359 72.5536C86.624 72.6845 86.5824 72.8095 86.5109 72.9286C86.4395 73.0476 86.3234 73.1459 86.1627 73.2232C86.002 73.3006 85.7758 73.3393 85.4842 73.3393H83.0199ZM83.3592 72.5714H85.1449C85.4365 72.5714 85.5824 72.4524 85.5824 72.2143V70.4643C85.5824 70.2262 85.4365 70.1072 85.1449 70.1072H83.3592C83.0735 70.1072 82.9306 70.2262 82.9306 70.4643V72.2143C82.9306 72.4524 83.0735 72.5714 83.3592 72.5714Z" fill="white"/>
<path d="M87.6417 73.3393V69.3393H88.3739L88.7131 69.5179C88.8679 69.4346 89.0346 69.3691 89.2131 69.3215C89.3917 69.2738 89.6179 69.25 89.8917 69.25C90.3262 69.25 90.6774 69.2977 90.9453 69.3929C91.2191 69.4881 91.4006 69.5596 91.4899 69.6072L91.1774 70.384C91.106 70.3482 90.9869 70.3036 90.8203 70.25C90.6596 70.1905 90.4691 70.1369 90.2489 70.0893C90.0286 70.0417 89.7875 70.0179 89.5256 70.0179H89.4274C89.1417 70.0179 88.9542 70.0744 88.8649 70.1875C88.7816 70.3006 88.737 70.4881 88.731 70.75V73.3393H87.6417Z" fill="white"/>
<path d="M94.0765 75V69.3393H94.8087L95.0319 69.4554C95.2997 69.4256 95.6182 69.3988 95.9872 69.375C96.3622 69.3512 96.7878 69.3393 97.264 69.3393H97.7194C98.017 69.3393 98.2462 69.378 98.4069 69.4554C98.5676 69.5328 98.6807 69.631 98.7462 69.75C98.8176 69.8691 98.8592 69.9941 98.8712 70.125C98.889 70.256 98.8979 70.375 98.8979 70.4822V72.1965C98.8979 72.2857 98.889 72.3959 98.8712 72.5268C98.8592 72.6518 98.8176 72.7768 98.7462 72.9018C98.6807 73.0268 98.5676 73.131 98.4069 73.2143C98.2462 73.2976 98.017 73.3393 97.7194 73.3393H97.264C96.8116 73.3393 96.4099 73.3274 96.0587 73.3036C95.7075 73.2798 95.4099 73.256 95.1658 73.2322V75H94.0765ZM95.4426 72.5714H97.3801C97.4932 72.5714 97.5914 72.5417 97.6747 72.4822C97.764 72.4226 97.8087 72.3334 97.8087 72.2143V70.4643C97.8146 70.3334 97.7819 70.2411 97.7104 70.1875C97.645 70.134 97.5349 70.1072 97.3801 70.1072H96.9337C96.5527 70.1072 96.2134 70.1161 95.9158 70.134C95.6241 70.1459 95.3741 70.1607 95.1658 70.1786V72.2947C95.1658 72.4256 95.1777 72.506 95.2015 72.5357C95.2313 72.5595 95.3116 72.5714 95.4426 72.5714Z" fill="white"/>
<path d="M99.8836 73.3393V69.3393H100.616L100.955 69.5179C101.11 69.4346 101.276 69.3691 101.455 69.3215C101.634 69.2738 101.86 69.25 102.134 69.25C102.568 69.25 102.919 69.2977 103.187 69.3929C103.461 69.4881 103.642 69.5596 103.732 69.6072L103.419 70.384C103.348 70.3482 103.229 70.3036 103.062 70.25C102.901 70.1905 102.711 70.1369 102.491 70.0893C102.27 70.0417 102.029 70.0179 101.767 70.0179H101.669C101.384 70.0179 101.196 70.0744 101.107 70.1875C101.023 70.3006 100.979 70.4881 100.973 70.75V73.3393H99.8836Z" fill="white"/>
<path d="M105.446 73.3393C105.148 73.3393 104.919 73.3006 104.758 73.2232C104.598 73.1459 104.482 73.0476 104.41 72.9286C104.345 72.8095 104.303 72.6845 104.285 72.5536C104.273 72.4226 104.267 72.3036 104.267 72.1965V70.4822C104.267 70.3929 104.273 70.2857 104.285 70.1607C104.303 70.0298 104.345 69.9018 104.41 69.7768C104.482 69.6518 104.598 69.5477 104.758 69.4643C104.925 69.381 105.154 69.3393 105.446 69.3393H107.365C107.758 69.3393 108.065 69.378 108.285 69.4554C108.511 69.5268 108.669 69.6459 108.758 69.8125C108.854 69.9792 108.901 70.2024 108.901 70.4822V71.8036H107.339C106.803 71.8036 106.365 71.7917 106.026 71.7679C105.693 71.7441 105.47 71.7292 105.357 71.7232V72.2143C105.351 72.4524 105.493 72.5714 105.785 72.5714H106.24C106.562 72.5714 106.874 72.5685 107.178 72.5625C107.487 72.5506 107.77 72.5387 108.026 72.5268C108.282 72.5089 108.487 72.4941 108.642 72.4822L108.999 73.0625C108.999 73.247 108.413 73.3393 107.24 73.3393H105.446ZM105.357 71.0357H107.812V70.4643C107.812 70.3453 107.797 70.2619 107.767 70.2143C107.743 70.1667 107.666 70.1369 107.535 70.125C107.404 70.1131 107.181 70.1072 106.865 70.1072H105.785C105.499 70.1072 105.357 70.2262 105.357 70.4643V71.0357Z" fill="white"/>
<path d="M110.983 73.3393C110.685 73.3393 110.456 73.3006 110.295 73.2232C110.134 73.1459 110.018 73.0476 109.947 72.9286C109.881 72.8095 109.84 72.6845 109.822 72.5536C109.81 72.4226 109.804 72.3036 109.804 72.1965V70.4822C109.804 70.3929 109.81 70.2857 109.822 70.1607C109.84 70.0298 109.881 69.9018 109.947 69.7768C110.018 69.6518 110.134 69.5477 110.295 69.4643C110.462 69.381 110.691 69.3393 110.983 69.3393H112.224C112.968 69.3393 113.494 69.3602 113.804 69.4018C114.119 69.4375 114.277 69.4762 114.277 69.5179L114.099 70.1965C113.932 70.1846 113.721 70.1727 113.465 70.1607C113.209 70.1429 112.932 70.131 112.634 70.125C112.343 70.1131 112.057 70.1072 111.777 70.1072H111.322C111.036 70.1072 110.893 70.2262 110.893 70.4643V72.2143C110.887 72.4524 111.03 72.5714 111.322 72.5714H111.777C112.099 72.5714 112.411 72.5685 112.715 72.5625C113.024 72.5506 113.307 72.5387 113.563 72.5268C113.819 72.5089 114.024 72.4941 114.179 72.4822L114.536 73.0625C114.536 73.247 113.95 73.3393 112.777 73.3393H110.983Z" fill="white"/>
<path d="M115.794 68.7768C115.573 68.7768 115.413 68.7322 115.311 68.6429C115.21 68.5536 115.16 68.4048 115.16 68.1965C115.16 67.9822 115.207 67.8334 115.303 67.75C115.404 67.6608 115.567 67.6161 115.794 67.6161C116.02 67.6161 116.184 67.6608 116.285 67.75C116.386 67.8334 116.436 67.9822 116.436 68.1965C116.436 68.3989 116.386 68.5477 116.285 68.6429C116.184 68.7322 116.02 68.7768 115.794 68.7768ZM115.249 73.3393V69.3393H116.338V73.3393H115.249Z" fill="white"/>
<path d="M118.594 73.3393C118.196 73.3393 117.898 73.2589 117.702 73.0982C117.511 72.9375 117.416 72.6756 117.416 72.3125V70.4822C117.416 70.3929 117.422 70.2857 117.434 70.1607C117.452 70.0298 117.493 69.9018 117.559 69.7768C117.63 69.6518 117.746 69.5477 117.907 69.4643C118.074 69.381 118.303 69.3393 118.594 69.3393H121.059C121.356 69.3393 121.586 69.381 121.746 69.4643C121.907 69.5477 122.02 69.6518 122.086 69.7768C122.157 69.9018 122.199 70.0298 122.211 70.1607C122.228 70.2857 122.237 70.3929 122.237 70.4822V72.1965C122.237 72.3036 122.228 72.4226 122.211 72.5536C122.199 72.6845 122.157 72.8095 122.086 72.9286C122.014 73.0476 121.898 73.1459 121.737 73.2232C121.577 73.3006 121.35 73.3393 121.059 73.3393H118.594ZM118.934 72.5714H120.719C121.011 72.5714 121.157 72.4524 121.157 72.2143V70.4643C121.157 70.2262 121.011 70.1072 120.719 70.1072H118.934C118.648 70.1072 118.505 70.2262 118.505 70.4643V72.2143C118.505 72.4524 118.648 72.5714 118.934 72.5714Z" fill="white"/>
</svg>
