<svg xmlns="http://www.w3.org/2000/svg" viewBox="0 0 500 262.59"><title>Logo AutoSelecto V blanco</title><g id="TEXTS"><path d="M249,5.33C195.37,33.08,139.87,6.77,87.16,35v77.34a111.64,111.64,0,0,1,22.7-4.57l1-.08V50.44c17.69-6.1,36.45-6.39,57.53-6.72,24.81-.37,52.56-.79,80.56-12.26,28,11.47,55.75,11.89,80.55,12.26,21.09.33,39.85.62,57.54,6.72V93.11c8.16,3,16.12,6,18.71,6.89a10.33,10.33,0,0,1,5,1.33V35C358.13,6.77,302.63,33.08,249,5.33Z" style="fill:#fff"/><path d="M459.51,115.88c-2.05-.49-3,.72-4.21.72s-13.09-2.27-13.58-1.82l-.49.46a4.82,4.82,0,0,0,2,1c1,.07,8.91,1.63,8.68,1.93a18.44,18.44,0,0,1-3.15,1.25S415,110.54,412.66,111s-4.36,1.21-6.41,1-3.75-1.32-6.56-2-11-2.23-11-2.23,15.13.3,16.54.75,2.35-1.29,2.08-1.74-2-.49-2.73-.49S338.8,81.76,335.51,81.2,281,77.26,267.08,79.33s-14.16,3.34-12.9,3.59,7.33.15,7,.76S233.39,112.15,231,112.81s-3.95.91-3.95.91l2.43,1.11a19.65,19.65,0,0,1-9.26-1.72c-4.14-2.12-11.83-2.17-15.88-2.12s-37,3.09-37,3.49,1.87.83,2.68.94,20.79,4.52,25.14,6.27c0,0-44.61-11.31-84.67-7.67S37.81,147,37.81,147s25.95,1.59,34.29-2,12.37-11.68,18.06-14c0,0-9.11,3.62-13.15,7.41s-6.53,4-6.93,3.19,11.81-15.15,26.83-18.64,28.3-.83,28.45.3a1.76,1.76,0,0,1-2,1.86c-1.17-.07-5.57-.91-9.37.53,0,0,13.73.76,23.37,7.74s12.06,13.28,12.06,13.28-2.5-8.65-6.45-12-7.51-5.91-6.75-6.67,4.59,1.29,5.46,2.43,4.1,6.75,6,6.07-1.9-4.37-1.59-5,3.11-.08,5.34,1.1,6.64,2.81,21.11,2.1,33-2.33,35.4-1.42,7.89,1.93,14.47,1.93,38.94.2,61.09.3c14.82.07,30.9.09,39.92.1,2.59-8.64,7.39-22.44,7.82-23.19.29-.51-.18-2.64-.75-4.57-1,.34-2,.69-2.9,1a6.27,6.27,0,0,1-.94-1.78c-.64-2-1.28-15.66-1.46-20,1,.27,2.06.55,3,.86l1.91.61c-1.7-.22-3.51-.35-3.55.09-.08.84,1.21,8.8,1.21,8.8s14.84-.48,23,0a52.34,52.34,0,0,1,6.85,4.41s-16.15,2.41-26.58,5.73c.52,1.73,1.15,4.27.7,5.06s-9,27.3-9,27.3l2.31-4.41h5.59l-4.75,6.27.11,3.26a40.53,40.53,0,0,1,71.27-.23c-1.73-3.78-7.42-15.28-13.57-17.6-7.39-2.78-10.12-3.13-10.27-4.9s1-2.83,2.93-2.48,13.41,7.89,16.44,8.65,39.07,4.48,40.48,3.79,3.3-1.44,1.4-2.54-20.6-1-21.51-2.2S425.6,125.67,431,126s9.3,1.94,12.14,2.47a56.29,56.29,0,0,0,5.84.72,24.32,24.32,0,0,0-3.9-1.06c-1.6-.23-2.66-.42-1.79-.69s10.78.38,11.8,1.48,1.18,3.83,1.29,4.14a1.79,1.79,0,0,0,.57.6s1.4-6.25,1.37-8.27S461.56,116.38,459.51,115.88ZM254.86,114l1.12-6.07s.81,1.77,1.61,2.05,5-3.82,5.54-5-1.24-6.19-1.87-6.93-5.11,3-5.11,3a1.11,1.11,0,0,0,.74.38c.53.07,3.23-1.9,3.74-2.08s.28,1.8.18,2.58-1.22,1.77-2.05,2.53-.43,1-.43,1a22,22,0,0,1,2.2.4c.4.15-2.08,2.28-2.56,2.45s-1.06-2.4-1.26-3.54a9.37,9.37,0,0,0-2.5.06c-.43.22-.11.73.1,1s-1.54,5.79-2.25,8.08c-9.27,0-15.58,0-15.58,0s28-28.32,30-28.93A152.26,152.26,0,0,1,284,83.88c-6.4.55-15.55,1.48-16.53,2.33-1.52,1.31-9.86,10.77-9,11.07s50.51-2.63,63,.14c0,5.09-.08,10.08-.69,11.45a10.87,10.87,0,0,1-1.74,2.62C305.9,113.43,274.92,113.88,254.86,114Zm109.4-17.22c-.23.68-5.88,1-8.91.3s-6.91-5.73-8-6.6-3.65-.83-5.5-1.59-14.8-2.92-15.37-3.08-1.1-3.6-1.1-3.6,5-.34,6.87.08,5.39,2.12,7.17,2.58,6.94,1,10.24,4.06,9.9,4.13,13.39,5S364.49,96,364.26,96.73Z" style="fill:#fff"/><path d="M117.93,59.69V87.78l73.4,17.86c5.44-.48,11.09-.94,12.89-1h1.65c6,0,10.58.5,14.15,1.57Zm256.8-5.42-38.82,20.6.77.11c1.6.28,6.52,2,28.1,9.88l15.29-4.72V55.59C378.31,55.1,376.52,54.65,374.73,54.27ZM195.94,49.84c-8.29.55-16.37.73-24.14.86l60.06,53c1-1,2.2-2.06,3.45-3.25Zm102.88-.24L283.2,72.36c4.62,0,9.79.14,15,.32l22.24-22.09C313.46,50.43,306.22,50.18,298.82,49.6Zm-62.11-6.46c-4.81,1.38-9.58,2.51-14.31,3.42L240.92,95c1.43-1.41,2.87-2.82,4.26-4.21Zm23-.47-3.76,32.19c2.67-.65,5.84-1.13,9.39-1.67l8.5-27C269.16,45.25,264.45,44.1,259.7,42.67Z" style="fill:#fff"/><text transform="translate(0 204.97)" style="font-size:72.36892700195312px;fill:#fff;font-family:Goldman-Bold, Goldman;font-weight:700">Auto</text><text transform="translate(195.98 204.97)" style="font-size:72.36892700195312px;fill:#fff;font-family:Goldman-Bold, Goldman;font-weight:700">Selecto</text><text transform="translate(11.46 244.04)" style="font-size:27.27570915222168px;fill:#fff;font-family:Goldman-Regular, Goldman;letter-spacing:0.25001498217488316em">Calidad al mejor precio</text></g></svg>